<svg width="38" height="38" viewBox="0 0 38 38" fill="none" xmlns="http://www.w3.org/2000/svg">
<path fill-rule="evenodd" clip-rule="evenodd" d="M25.2037 28.486C22.5576 30.4445 30.7857 22.0305 28.4443 25.2289C28.5029 25.2242 28.3943 25.4016 28.0303 25.8461C28.0303 25.8461 34.2834 32.057 37.3529 35.218C38.4185 36.3703 36.4959 38.6703 35.1896 37.4695C32.4099 34.7727 25.8326 28.0703 25.8224 28.0594L25.2037 28.486Z" fill="white"/>
<path d="M16.0149 31.6266C20.0384 31.5875 24.0212 29.9211 26.8853 27.0906C30.2868 23.7289 32.0384 18.7555 31.4274 14.007C30.3806 5.87032 23.6915 0.34845 15.9149 0.34845C10.0063 0.34845 4.26416 4.04454 1.74541 9.40392C-0.182714 13.507 -0.186621 18.461 1.74541 22.5711C4.24619 27.893 9.89463 31.5695 15.8142 31.6266C15.8813 31.6266 15.9485 31.6266 16.0149 31.6266ZM15.8306 29.0195C9.82197 28.9617 4.21572 24.3149 3.10088 18.357C2.31494 14.157 3.79854 9.61173 6.88916 6.62892C10.497 3.14533 16.1681 1.97892 20.8837 3.95314C25.1024 5.71954 28.2603 9.82111 28.8423 14.3399C29.3407 18.2133 27.9509 22.2727 25.2196 25.0688C22.8235 27.5219 19.4634 28.986 15.9985 29.0195C15.9423 29.0195 15.8868 29.0195 15.8306 29.0195Z" fill="white"/>
</svg>
