<svg width="50" height="50" viewBox="0 0 50 50" fill="none" xmlns="http://www.w3.org/2000/svg">
<rect width="50" height="50" rx="25" fill="#DFD5D5"/>
<g clip-path="url(#clip0_31_885)">
<path d="M25 5C13.9567 5 5 13.955 5 25C5 33.8367 10.73 41.3333 18.6783 43.9783C19.6767 44.1633 20 43.5433 20 43.0167V39.2933C14.4367 40.5033 13.2783 36.9333 13.2783 36.9333C12.3683 34.6217 11.0567 34.0067 11.0567 34.0067C9.24167 32.765 11.195 32.7917 11.195 32.7917C13.2033 32.9317 14.26 34.8533 14.26 34.8533C16.0433 37.91 18.9383 37.0267 20.08 36.515C20.2583 35.2233 20.7767 34.34 21.35 33.8417C16.9083 33.3333 12.2383 31.6183 12.2383 23.9567C12.2383 21.7717 13.02 19.9883 14.2983 18.5883C14.0917 18.0833 13.4067 16.0483 14.4933 13.295C14.4933 13.295 16.1733 12.7583 19.995 15.345C21.59 14.9017 23.3 14.68 25 14.6717C26.7 14.68 28.4117 14.9017 30.01 15.345C33.8283 12.7583 35.505 13.295 35.505 13.295C36.5933 16.05 35.9083 18.085 35.7017 18.5883C36.985 19.9883 37.76 21.7733 37.76 23.9567C37.76 31.6383 33.0817 33.33 28.6283 33.825C29.345 34.445 30 35.6617 30 37.5283V43.0167C30 43.5483 30.32 44.1733 31.335 43.9767C39.2767 41.3283 45 33.8333 45 25C45 13.955 36.045 5 25 5Z" fill="black"/>
</g>
<defs>
<clipPath id="clip0_31_885">
<rect width="40" height="40" fill="white" transform="translate(5 5)"/>
</clipPath>
</defs>
</svg>
