<svg width="50" height="50" viewBox="0 0 50 50" fill="none" xmlns="http://www.w3.org/2000/svg">
<rect width="50" height="50" rx="25" fill="#DFD5D5"/>
<path d="M40 35.8333C40 38.135 38.135 40 35.8333 40H14.1667C11.8658 40 10 38.135 10 35.8333V14.1667C10 11.865 11.8658 10 14.1667 10H35.8333C38.135 10 40 11.865 40 14.1667V35.8333Z" fill="#1976D2"/>
<path d="M34.9475 20.0342C34.9858 19.9084 35.0042 19.7917 34.9992 19.6875C34.9867 19.3859 34.7792 19.1667 34.2908 19.1667H32.1092C31.5583 19.1667 31.3042 19.5 31.1558 19.8342C31.1558 19.8342 29.7958 22.6334 28.2283 24.4792C27.72 25.0134 27.4617 25 27.1867 25C27.0392 25 26.6667 24.8217 26.6667 24.3325V20.0117C26.6667 19.4334 26.5225 19.1667 26.0567 19.1667H22.1825C21.8433 19.1667 21.6667 19.4334 21.6667 19.7009C21.6667 20.2567 22.415 20.39 22.5 21.9475V24.9667C22.5 25.7 22.3725 25.8334 22.0975 25.8334C21.3558 25.8334 19.8958 23.3334 18.9183 20.0567C18.7067 19.4117 18.495 19.1667 17.9442 19.1667H15.7417C15.1058 19.1667 15 19.4784 15 19.8117C15 20.4125 15.5 23.6609 18.2292 27.3959C20.2083 30.1042 22.8158 31.6667 25.1242 31.6667C26.5225 31.6667 26.6658 31.3109 26.6658 30.755V28.2784C26.6667 27.6109 26.8192 27.5 27.2642 27.5C27.5817 27.5 28.2292 27.7084 29.4792 29.1667C30.9208 30.8484 31.1825 31.6667 32.0092 31.6667H34.1908C34.6975 31.6667 34.9883 31.4542 35 31.0417C35.0025 30.9367 34.9875 30.8192 34.9533 30.6884C34.7917 30.2084 34.05 29.035 33.125 27.9167C32.6125 27.2975 32.1067 26.6842 31.8742 26.3509C31.7183 26.1334 31.6592 25.98 31.6667 25.8334C31.6742 25.6792 31.7542 25.5325 31.8742 25.3275C31.8525 25.3275 34.6725 21.3684 34.9475 20.0342Z" fill="white"/>
</svg>
